<svg xmlns="http://www.w3.org/2000/svg" id="Grupo_7029" width="29" height="29" viewBox="0 0 29 29">
    <defs>
        <style>
            .cls-2{fill:#bea978;stroke:#bea978;stroke-width:.7px}
        </style>
    </defs>
    <circle id="Elipse_753" cx="14.5" cy="14.5" r="14.5" fill="#fff"/>
    <g id="camara" transform="translate(4.534 -38.065)">
        <g id="Grupo_7892" transform="translate(0 44.8)">
            <g id="Grupo_7891">
                <path id="Trazado_6686" d="M19.075 47.22a2.121 2.121 0 0 0-1.557-.656H14.4v-.038a1.684 1.684 0 0 0-.506-1.219 1.716 1.716 0 0 0-1.219-.506H7.052a1.729 1.729 0 0 0-1.744 1.726v.038H2.213a2.121 2.121 0 0 0-1.557.656A2.23 2.23 0 0 0 0 48.776v9.341a2.121 2.121 0 0 0 .656 1.557 2.23 2.23 0 0 0 1.557.656h15.305a2.121 2.121 0 0 0 1.557-.656 2.23 2.23 0 0 0 .656-1.557v-9.341a2.121 2.121 0 0 0-.656-1.556zm-.319 10.9h-.019a1.217 1.217 0 0 1-1.219 1.219H2.213a1.217 1.217 0 0 1-1.219-1.222v-9.341a1.217 1.217 0 0 1 1.219-1.219h3.62a.5.5 0 0 0 .506-.506v-.544a.706.706 0 0 1 .731-.731h5.608a.706.706 0 0 1 .731.731v.544a.5.5 0 0 0 .506.506h3.62a1.217 1.217 0 0 1 1.219 1.219z" class="cls-2" transform="translate(0 -44.8)"/>
                <path id="Trazado_6687" d="M116.614 130.8a4.611 4.611 0 1 0 3.264 1.35 4.622 4.622 0 0 0-3.264-1.35zm2.551 7.184a3.623 3.623 0 0 1-5.1 0 3.586 3.586 0 0 1-1.05-2.551 3.665 3.665 0 0 1 1.05-2.551 3.586 3.586 0 0 1 2.551-1.05 3.665 3.665 0 0 1 2.551 1.05 3.586 3.586 0 0 1 1.05 2.551 3.51 3.51 0 0 1-1.052 2.551z" class="cls-2" transform="translate(-106.748 -126.767)"/>
                <circle id="Elipse_863" cx=".919" cy=".919" r=".919" class="cls-2" transform="translate(15.624 4.014)"/>
            </g>
        </g>
    </g>
</svg>
